<?xml version="1.0" encoding="UTF-8"?>
<svg version="1.1" viewBox="0 0 1024 1024" width="1024" height="1024" xmlns="http://www.w3.org/2000/svg">
<path transform="translate(0)" d="m0 0h1024v1024h-1024z" fill="#141415"/>
<path transform="translate(123,231)" d="m0 0h66l18 1 1 1v20l-3 31v18l1 3h2l-2-5 1-10 6-29 7-28 1-1h54l-6 9-12 14-11 15-1 8-6 8v6l-1 2 5 2 6 2 5 31 8 49 13 78 14 75 8 38 1 3 6-22 9-40 15-60 12-46 13-51 8-29 9-35 2-4 2 1 10 42 11 52 8 39-1 7-5 11-2 7v6l2-6 5-4 4-1 3 5 22 77 5 22 2 4 6-24 1-2 3-2 1-4h2l-1-2-3-1v-8l13-66 10-49 6-28 5-22 7-2v-7l-5-3 2-16 6-41-8-18-8-15-1-6h124l2 1-2 5-12 14-18 22-14 70-5 22-4 5-1 5 2 1-1 10-20 100-11 58-3 7-5 4-1 3 5 1-1 13-11 60-8 42-4 17 1 4 6 14 11 20 5 12h-102l3-9 5-12-1-8-5-20v-24l-6 1-3-9-7-24-7-26-9-31-9-37-3 9-11 41-5 21-8 12-3 14 2 1-2 13-8 38v10l5 10 10 16 7 11v2l-5 1h-140l7-11 13-21 7-11v-8l-3-23-1-23 1-1h8l-7-16-8-11-5-21-20-98-12-58-7-37v-5l7-2-4-13-4-7-7-10-4-30-7-60-11-13-7-7-7-8-11-11v-3h-2z" fill="#2E8140"/>
<path transform="translate(640,231)" d="m0 0h29l141 1 1 2-12 21-3 6 1 13 1 5v9l-3 7-4 10-6 14 8-15 5-4 5 2 9 37 10 44 3 15-1 13 4 1 3 8 8 39 4 19v9l15-7 18-6 6-1h9l4 10 4 5v2l-19 14-16 11-17 12-4 4h10l3 8 10 48 10 43 12 51 3 11 9 13 11 13 14 19v3l-128 1h-32l-4-2 1-4 21-21 8-10 2-15 2-7v-5l-5 1-3-13-10-55-4-23 1-7 4-6 1-7-28 16-15 9-26 15-4 2h-13l-2 7-5 4-25 14-13 8-7 4h-2v2h9l-4 16-4 19v19l8 16 13 15 5 5v2l-10 1h-118l2-5 13-16 9-13 8-17 7-24 14-57 4-6 7-6h2v-2h-8l2-12 12-59 5-21 5-5 5-7h-6l-1-3 10-46 3-11 7-8-4-1 1-9 14-57 5-25 6-3h-2l1-4 1-1-4-2 1-10 7-31v-7l-10-17-9-12-5-7z" fill="#2E8140"/>
<path transform="translate(721,356)" d="m0 0h1l8 49 9 43 11 46 4 19-1 5-17 10-15 9-23 13-20 12-2-1 15-70 14-64 6-28 7-32z" fill="#141415"/>
<path transform="translate(622,595)" d="m0 0 1 3-2 18-4 23-3 21-4 21-1 17-1 4-3-1 1-11 2-20 4-29 7-32 2-12z" fill="#141415"/>
<path transform="translate(812,644)" d="m0 0 2 4v15l9 24 4 16v5l-2-3-8-20-5-15z" fill="#141415"/>
<path transform="translate(668,394)" d="m0 0 1 3-5 27h-1v-15l4-13z" fill="#141415"/>
<path transform="translate(293,704)" d="m0 0 3 3 5 9 4 5v8l-2-1-10-21z" fill="#141415"/>
<path transform="translate(537,247)" d="m0 0 1 2-4 6-16 9-2-1 13-9 5-4z" fill="#141415"/>
<path transform="translate(690,305)" d="m0 0 3 4 5 12 1 2h-2l-1 4-5-14z" fill="#141415"/>
</svg>
