<?xml version="1.0" encoding="UTF-8"?>
<svg version="1.1" viewBox="0 0 1024 1024" width="1024" height="1024" xmlns="http://www.w3.org/2000/svg">
<path transform="translate(123,231)" d="m0 0h50l35 1v22l-3 31-1 6h2l1-5 4-15 3-14 6-24 1-1 54-1-2 5-8 10-11 13-8 11-2 10-3 3-1 6 2 5 8 6 5 35 8 49 6 36 10 56 8 44 10 48v4h2l3-14 8-36 14-57 9-34 17-67 9-32 11-44 3-3 3 6 9 42 11 50 7 37-1 6-5 11-2 9 4-3h2l1-3 5-1 6 18 10 35 9 32 4 18 1 5h2l1-8 4-16 3-3 1-7-1-1v-8l7-37 7-35 6-28 3-15 7-33 3-15 4-4 3-1 1-5-5-3 1-13 3-17 3-22 1-6-8-18-6-9-4-10 1-2h126l1 2-11 14-9 10-11 14-2 3-8 42-6 28-5 22-3 5-1 4 1 1-1 10-9 47-7 33-7 37-5 26-3 16-3 6-4 2-1 4 4 3-1 13-8 43-9 50-5 22v7l6 14 9 16 7 15-2 2h-100l1-6 7-16-1-8-5-19-1-12 1-12h-6l-3-7-8-28-6-23-9-32-8-32-1-3-2 2-10 41-4 16-4 13-6 7-3 12 1 10-9 42-1 5v9l5 10 7 11 10 15-1 4-144 1 2-5 7-10 6-10 8-13 4-6v-8l-3-24-1-11v-11l1-1h8l-6-13-6-10-3-4-5-21-23-112-11-54-5-26v-7l7-1-4-13-6-10-5-6-4-29-7-62-7-8-2-4-3-1-7-8-11-12-8-8z" fill="#308442"/>
<path transform="translate(640,231)" d="m0 0h32l139 1-2 6-12 21-1 7 2 13v9l-4 12h8l2 3 11 49 8 36 2 10v10l5 7 9 42 5 29 17-7 16-5 5-1h10l3 9 4 6-2 4-14 10-19 13-17 12-2 3 8 1 3 7 10 48 6 24 5 23 11 47 3 12 12 17 8 9 12 16 3 6-59 1h-106l-1-4 20-20 9-11 2-2 2-16 2-6v-4h-5l-2-8-9-48-6-35v-6l5-7 1-6-7 3-17 10-26 15-13 8-9 5h-10l-4 4-3 5-27 15-14 9-5 3-2 1 6 2-4 18-3 12-1 10v13l5 12 8 11 13 14v2l-8 1h-120l3-7 12-14 9-13 8-17 6-21 7-27 6-26 3-10 7-7 3-2-6-2 1-8 8-39 9-42 3-6 5-5 2-3-6-1 4-22 7-31 4-10 3-1v-3l-2-1 1-10 5-21 7-27 3-14 4-20 3-3 2-6-3-1 1-10 7-33-1-7-10-16-10-13-5-8v-2zm81 129-3 7-7 34-6 27-9 41-9 42-8 38-2 8v4l6-2 19-11 28-16 13-8 10-6 1-4-7-33-10-41-5-25-4-21-3-17-2-14z" fill="#308442"/>
</svg>
