<?xml version="1.0" standalone="no"?>
<!DOCTYPE svg PUBLIC "-//W3C//DTD SVG 20010904//EN"
 "http://www.w3.org/TR/2001/REC-SVG-20010904/DTD/svg10.dtd">
<svg version="1.0" xmlns="http://www.w3.org/2000/svg"
 width="1024.000000pt" height="1024.000000pt" viewBox="0 0 1024.000000 1024.000000"
 preserveAspectRatio="xMidYMid meet">

<g transform="translate(0.000000,1024.000000) scale(0.100000,-0.100000)"
fill="#06402B" stroke="none">
<path d="M0 5120 l0 -5120 5120 0 5120 0 0 5120 0 5120 -5120 0 -5120 0 0
-5120z m5480 3339 c314 -30 498 -102 661 -257 198 -188 268 -376 409 -1097 17
-88 42 -210 56 -272 l25 -112 -84 -128 c-46 -70 -92 -148 -101 -171 l-17 -44
56 -120 c116 -250 275 -667 350 -918 43 -145 45 -130 -42 -304 -104 -210 -253
-407 -468 -621 -146 -146 -219 -199 -305 -221 -110 -28 -358 -36 -1005 -31
-381 3 -670 9 -715 16 -52 7 -101 24 -160 52 -75 37 -101 58 -220 178 -216
217 -375 428 -479 637 -81 163 -80 155 -42 286 66 228 227 642 359 921 53 112
55 119 43 156 -6 21 -52 101 -101 177 -57 86 -89 143 -85 153 11 29 43 174 75
341 67 354 134 629 186 768 113 300 295 471 590 557 228 66 653 89 1014 54z
m-2632 -674 c192 -51 497 -186 690 -305 69 -43 82 -55 82 -77 0 -14 -14 -92
-32 -173 l-31 -147 -91 91 c-50 51 -116 110 -146 132 -55 40 -144 94 -154 94
-15 0 80 -201 174 -370 26 -47 55 -110 65 -140 23 -71 47 -120 81 -159 l27
-32 -21 -87 c-12 -48 -24 -111 -28 -139 -4 -29 -10 -53 -14 -53 -16 0 -128 80
-168 120 -56 57 -63 71 -132 274 -110 326 -249 648 -364 850 -55 95 -65 120
-56 131 16 19 8 19 118 -10z m4671 7 c7 -14 -3 -39 -46 -113 -119 -201 -256
-513 -383 -877 -73 -205 -92 -239 -173 -303 -47 -38 -126 -84 -131 -77 -1 2
-9 46 -19 98 -9 52 -22 114 -29 137 -11 41 -11 44 14 70 28 29 88 147 88 173
0 8 36 83 80 165 88 164 164 325 156 332 -8 8 -145 -81 -216 -142 -39 -33 -94
-87 -123 -119 l-51 -59 -28 129 c-15 71 -30 150 -34 175 l-6 46 108 65 c185
111 380 199 609 274 146 48 170 52 184 26z m-839 -3909 c133 -36 240 -147 256
-267 7 -51 15 -46 -118 -72 -48 -9 -94 -14 -102 -11 -9 4 -22 23 -31 44 -41
99 -150 140 -253 97 -105 -43 -163 -174 -149 -332 8 -90 22 -132 60 -188 42
-63 90 -86 172 -86 92 0 151 31 187 97 14 27 24 53 22 57 -3 4 -46 8 -95 8
l-90 0 3 103 3 102 200 0 200 0 5 -258 c3 -142 2 -267 -2 -277 -5 -14 -22 -20
-71 -25 -85 -9 -103 -3 -111 40 -4 19 -9 35 -12 35 -2 0 -23 -14 -46 -30 -56
-41 -126 -60 -217 -60 -183 0 -319 78 -398 226 -103 193 -79 495 50 657 109
135 337 195 537 140z m1238 -8 c6 -6 11 -211 13 -500 l4 -490 -106 -3 c-80 -2
-109 1 -117 11 -8 9 -13 82 -14 208 l-3 194 -167 3 -168 2 0 -204 c0 -148 -3
-207 -12 -212 -21 -13 -195 -9 -212 5 -14 12 -16 69 -16 490 0 358 3 480 12
489 8 8 48 12 114 12 84 0 103 -3 108 -16 3 -9 6 -90 6 -180 l0 -164 170 0
170 0 0 169 c0 210 -4 204 121 199 48 -1 92 -7 97 -13z m-5711 -3 c6 -4 34
-142 63 -307 28 -165 54 -311 59 -325 6 -21 11 -13 29 54 11 43 44 187 73 319
33 159 57 246 67 255 10 7 46 12 92 12 46 0 83 -5 92 -12 11 -9 34 -90 67
-233 28 -121 61 -262 73 -312 20 -88 38 -120 38 -70 1 58 109 610 122 618 15
10 178 12 202 3 9 -3 16 -16 16 -28 0 -54 -180 -960 -192 -968 -7 -4 -69 -7
-138 -6 l-125 3 -72 275 c-40 151 -72 283 -72 293 -2 56 -25 -14 -86 -265 -37
-156 -72 -289 -78 -295 -7 -9 -46 -13 -133 -13 -108 0 -123 2 -128 18 -3 9
-33 150 -66 312 -33 162 -78 377 -99 477 -27 127 -35 185 -28 192 12 12 206
15 224 3z m1581 -1 c7 -4 39 -93 71 -197 33 -104 94 -301 136 -439 43 -137 83
-269 91 -292 20 -64 6 -73 -115 -73 -74 0 -102 4 -111 15 -6 8 -22 52 -34 97
l-23 83 -159 3 -159 2 -24 -85 c-13 -48 -30 -93 -38 -101 -20 -20 -205 -20
-222 0 -9 11 20 118 138 497 83 265 156 486 163 490 17 11 269 11 286 0z m945
-3 c16 -13 46 -104 174 -528 35 -118 80 -263 99 -321 39 -120 40 -134 18 -143
-31 -12 -211 -7 -222 7 -6 6 -21 50 -35 97 l-24 85 -156 3 -156 3 -11 -43
c-43 -165 -36 -158 -165 -158 -74 0 -106 4 -114 14 -8 10 3 58 48 202 32 104
98 315 146 469 47 154 93 290 101 303 14 21 21 22 147 22 91 0 138 -4 150 -12z
m950 0 c10 -8 54 -134 111 -323 52 -170 118 -382 145 -470 56 -176 58 -190 35
-199 -31 -12 -211 -7 -222 7 -6 6 -17 41 -26 77 -30 120 -13 110 -189 110
l-154 0 -22 -82 c-12 -46 -26 -90 -31 -98 -7 -11 -35 -16 -118 -18 -135 -4
-141 0 -112 84 12 32 65 205 120 384 54 179 111 366 126 415 40 130 33 125
189 125 89 0 136 -4 148 -12z m-2579 -1188 c20 -7 29 -23 46 -82 29 -96 179
-587 232 -755 22 -72 38 -138 35 -147 -5 -13 -25 -16 -115 -16 -77 0 -113 4
-120 13 -6 7 -22 51 -35 97 l-25 85 -153 0 -153 0 -12 -35 c-7 -19 -21 -62
-31 -95 l-18 -60 -109 -3 c-130 -3 -139 1 -121 61 153 503 289 924 303 935 19
15 238 17 276 2z m676 -9 c6 -13 10 -156 10 -395 l0 -376 178 0 c125 0 182 -4
190 -12 16 -16 16 -180 0 -196 -14 -14 -574 -17 -596 -4 -10 7 -13 110 -12
496 0 269 3 492 6 497 3 5 52 9 109 9 93 0 105 -2 115 -19z m587 7 c6 -7 45
-95 88 -196 42 -100 81 -185 86 -188 10 -6 25 25 110 235 33 80 65 148 71 153
23 14 192 9 213 -6 24 -17 27 -11 -142 -348 l-133 -268 0 -174 c0 -145 -3
-177 -16 -190 -12 -12 -37 -16 -109 -16 -128 0 -125 -5 -125 213 l0 169 -150
290 c-82 159 -150 296 -150 303 0 26 35 34 141 35 74 0 110 -4 116 -12z m1444
2 c15 -9 19 -22 19 -64 0 -44 -6 -62 -38 -112 -54 -83 -305 -445 -368 -531
-45 -60 -50 -72 -36 -78 9 -3 110 -5 224 -4 115 1 211 0 214 -3 9 -10 12 -161
3 -185 l-9 -23 -373 0 c-277 0 -376 3 -385 12 -19 19 -14 95 9 141 22 42 201
313 340 515 58 83 74 112 61 112 -9 1 -96 0 -193 0 -216 -1 -209 -5 -209 119
0 54 4 91 12 99 16 16 700 17 729 2z m807 -2 c10 -10 19 -193 10 -200 -2 -1
-93 -4 -203 -7 l-200 -6 0 -80 0 -80 157 -5 c86 -3 160 -9 165 -13 4 -5 10
-46 11 -92 5 -114 4 -115 -190 -115 l-148 0 0 -85 c0 -73 3 -86 19 -95 12 -6
98 -10 209 -10 164 0 191 -2 196 -16 3 -9 6 -51 6 -95 0 -76 -1 -80 -26 -89
-39 -15 -617 -13 -632 2 -17 17 -17 969 0 986 17 17 609 17 626 0z m582 2
c150 -12 201 -30 267 -95 61 -62 83 -122 83 -231 0 -118 -41 -201 -125 -252
l-43 -26 19 -43 c10 -24 53 -107 94 -184 42 -78 74 -147 71 -155 -4 -11 -33
-14 -130 -14 l-124 0 -27 58 c-15 31 -52 108 -81 170 l-54 112 -55 0 -55 0 0
-164 c0 -140 -2 -165 -16 -170 -9 -3 -56 -6 -105 -6 -81 0 -90 2 -103 23 -12
18 -14 97 -13 492 1 259 6 476 10 483 10 15 214 16 387 2z"/>
<path d="M4000 7184 c0 -32 65 -216 108 -304 55 -113 135 -201 198 -219 56
-16 181 -14 265 4 40 9 73 14 75 12 1 -1 -15 -26 -37 -55 -36 -47 -109 -167
-109 -179 0 -7 140 92 216 154 207 168 240 200 264 254 21 50 22 60 14 174
l-9 120 -24 -73 c-26 -80 -80 -170 -130 -217 l-31 -29 -78 38 c-148 74 -478
229 -599 281 -87 38 -123 49 -123 39z"/>
<path d="M6115 7146 c-142 -62 -511 -234 -608 -283 -65 -32 -70 -33 -92 -19
-40 26 -108 136 -136 221 l-27 79 -7 -116 c-10 -160 5 -199 112 -289 219 -185
383 -312 383 -295 0 11 -73 131 -109 178 -22 29 -38 54 -37 56 2 2 40 -4 85
-13 105 -22 240 -17 295 9 88 44 194 233 255 454 11 39 17 72 13 71 -4 0 -61
-24 -127 -53z"/>
<path d="M4793 6425 c-12 -8 -27 -31 -33 -51 -10 -30 -9 -38 5 -54 17 -19 233
-115 241 -108 9 9 -27 107 -54 147 -50 74 -111 99 -159 66z"/>
<path d="M5319 6391 c-36 -37 -53 -66 -67 -113 -11 -35 -19 -64 -17 -66 5 -5
188 69 223 90 43 26 44 68 3 109 -46 46 -84 40 -142 -20z"/>
<path d="M4110 6189 c-121 -188 -214 -415 -261 -635 -27 -125 -37 -385 -19
-476 22 -115 70 -183 146 -208 31 -11 51 -6 222 53 361 124 569 161 917 161
372 0 630 -47 987 -180 115 -43 126 -45 163 -34 52 16 108 75 129 137 58 164
28 511 -65 782 -39 112 -134 305 -200 406 l-52 80 -8 -35 c-4 -19 -27 -172
-50 -340 -23 -168 -46 -309 -50 -314 -6 -6 -20 1 -36 17 -65 62 -224 105 -464
128 -172 16 -697 6 -839 -15 -145 -22 -259 -59 -310 -104 -27 -23 -44 -31 -49
-24 -4 6 -26 154 -50 329 -24 175 -46 326 -50 337 -6 15 -17 3 -61 -65z m518
-866 c19 -65 36 -126 39 -135 6 -20 -4 -25 -124 -61 l-83 -25 0 28 c0 40 45
189 80 267 23 50 33 64 42 55 6 -6 27 -64 46 -129z m1075 80 c32 -74 52 -134
72 -218 18 -80 18 -75 0 -75 -22 0 -188 49 -198 59 -7 7 63 256 79 282 11 19
22 7 47 -48z"/>
<path d="M4937 4835 c-103 -21 -237 -69 -237 -84 0 -3 189 -6 420 -6 231 0
420 1 420 2 0 10 -111 56 -176 73 -103 28 -327 36 -427 15z"/>
<path d="M3625 3575 c-46 -155 -82 -291 -78 -297 5 -9 187 -11 195 -3 5 5 -47
201 -81 305 l-18 55 -18 -60z"/>
<path d="M4564 3563 c-9 -32 -29 -103 -46 -158 -16 -55 -32 -108 -34 -117 -5
-16 4 -18 95 -18 55 0 102 4 105 8 7 12 -85 342 -95 342 -5 0 -16 -26 -25 -57z"/>
<path d="M5487 3459 c-26 -94 -45 -175 -41 -180 6 -11 164 -12 182 -1 9 6 2
46 -34 173 -25 90 -49 167 -53 171 -3 4 -28 -69 -54 -163z"/>
<path d="M2967 2423 c-7 -12 -97 -321 -97 -333 0 -6 43 -10 100 -10 55 0 100
2 100 5 0 8 -92 340 -95 343 -2 2 -5 -1 -8 -5z"/>
<path d="M7045 2468 c-3 -8 -4 -63 -3 -124 l3 -109 84 -3 c99 -3 133 8 161 53
38 61 18 148 -39 176 -14 6 -65 14 -113 17 -70 3 -89 2 -93 -10z"/>
</g>
</svg>
